<?xml version="1.0" encoding="utf-8"?>
<!-- Generator: Adobe Illustrator 24.2.1, SVG Export Plug-In . SVG Version: 6.00 Build 0)  -->
<svg version="1.1" id="Capa_1" xmlns="http://www.w3.org/2000/svg" xmlns:xlink="http://www.w3.org/1999/xlink" x="0px" y="0px"
	 viewBox="0 0 1080 1080" style="enable-background:new 0 0 1080 1080;" xml:space="preserve">
<style type="text/css">
	.st0{fill:#2E028C;}
	.st1{fill:#441C98;}
	.st2{fill:#F6F2F7;}
	.st3{fill:#F5F4F8;}
	.st4{fill:#F70E53;}
	.st5{fill:#F81053;}
	.st6{fill:#F5F5F9;}
	.st7{fill:#EFF0F6;}
	.st8{fill:#F8114F;}
	.st9{fill:#F41353;}
</style>
<g>
	<path class="st0" d="M796,504c0,4,0,8,0,12c0,16,0,32,0,48c0,5.33,0,10.67,0,16c-1.74,3.96-4.08,7.77-5.13,11.91
		c-28.01,110.13-96.83,177.64-208.72,200.4c-2.21,0.45-4.11,2.43-6.15,3.69c-4,0-8,0-12,0c-16,0-32,0-48,0c-5.33,0-10.67,0-16,0
		c-4.61-1.89-9.07-4.37-13.86-5.59c-104.48-26.6-169.96-92.08-196.56-196.56c-1.22-4.78-3.7-9.24-5.59-13.86c0-5.33,0-10.67,0-16
		v-45.12c1.21-7.89,3.14-20.46,4.36-28.35c0.3-0.8,0.56-1.62,0.77-2.45c28.01-110.13,96.83-177.64,208.72-200.4
		c2.21-0.45,6.23-0.4,6.15-3.69c4,0,8,0,12,0c16,0,32,0,48,0c4,0,8,0,12,0c2.7,1.34,5.27,3.37,8.13,3.91
		c108.51,20.51,187.45,99.45,207.96,207.96C792.63,498.73,794.66,501.3,796,504z M594.82,508.66
		c-27.27,10.36-54.48,20.88-81.83,31.04c-30.39,11.29-30.44,11.14-26.78,46.3c43.98-15.89,87.69-31.57,131.32-47.48
		c28.77-10.49,31.63-16.81,23.1-48.97l-10.39-10.06c20.99-12.96,13.76-31.82,10.44-49.86c-50.54-18.85-101.07-37.69-151.89-56.64
		c-6.91,26.89-5.33,33.76,14.79,42.66c27.07,11.98,55.16,21.66,82.81,32.33c-8.05,2.86-16.1,5.73-24.16,8.59
		c-41.2-13.6-82.39-27.2-123.79-40.87c-4.83,30.65-2.5,33.96,23.76,44.36c13.56,5.37,26.29,12.84,39.39,19.35l-20.16,11.41
		c-14.17-5.45-28.33-10.89-44.43-17.08v30.83c15.3,8.66,30.56,17.37,45.98,25.8c0.77,0.42,2.83-1.98,4.47-2.6
		c26.88-10.19,53.79-20.31,80.69-30.44C577.03,501.1,585.92,504.88,594.82,508.66z M563.57,583.14c-2.87,0-4.29-0.35-5.44,0.05
		c-14.99,5.32-29.94,10.75-44.91,16.15c-31.29,11.29-31.29,11.29-26.44,48.1c18.53-7.38,36.15-14.71,53.99-21.43
		C568.64,615.5,569.16,614.84,563.57,583.14z M485.74,703.39c34.49-5.56,39.48-12.53,31.74-44.34
		C482.69,666.67,482.53,666.89,485.74,703.39z"/>
	<path class="st1" d="M564,284c-16,0-32,0-48,0C532,284,548,284,564,284z"/>
	<path class="st1" d="M284,516c0,16,0,32,0,48C284,548,284,532,284,516z"/>
	<path class="st1" d="M796,564c0-16,0-32,0-48C796,532,796,548,796,564z"/>
	<path class="st1" d="M516,796c16,0,32,0,48,0C548,796,532,796,516,796z"/>
	<path class="st2" d="M640.68,429.63c3.31,18.04,10.54,36.91-10.44,49.86c-20.7,5.95-41.4,11.89-62.1,17.84
		c-26.9,10.13-53.81,20.25-80.69,30.44c-1.64,0.62-3.69,3.02-4.47,2.6c-15.42-8.42-30.69-17.14-45.98-25.8
		c14.81-4.58,29.62-9.17,44.43-13.75c6.72-3.8,13.44-7.6,20.16-11.41c20.21-7.62,40.42-15.23,60.63-22.85
		c8.05-2.86,16.1-5.73,24.15-8.59C604.47,441.86,622.57,435.74,640.68,429.63z"/>
	<path class="st3" d="M640.63,489.55c8.53,32.16,5.67,38.48-23.1,48.97c-43.63,15.9-87.34,31.59-131.32,47.48
		c-3.66-35.16-3.61-35.01,26.78-46.3c27.35-10.16,54.56-20.68,81.83-31.04C610.09,502.29,625.36,495.92,640.63,489.55z"/>
	<path class="st4" d="M640.68,429.63c-18.1,6.12-36.21,12.23-54.3,18.35c-27.64-10.67-55.73-20.35-82.8-32.33
		c-20.12-8.9-21.7-15.77-14.79-42.66C539.6,391.93,590.14,410.78,640.68,429.63z"/>
	<path class="st5" d="M562.23,456.56c-20.21,7.62-40.42,15.23-60.63,22.85c-13.1-6.52-25.83-13.99-39.39-19.35
		c-26.26-10.4-28.59-13.71-23.76-44.36C479.83,429.36,521.03,442.96,562.23,456.56z"/>
	<path class="st6" d="M563.57,583.14c5.59,31.7,5.07,32.36-22.8,42.86c-17.84,6.73-35.45,14.05-53.99,21.43
		c-4.85-36.8-4.85-36.8,26.44-48.1c14.96-5.4,29.92-10.83,44.91-16.15C559.28,582.79,560.7,583.14,563.57,583.14z"/>
	<path class="st7" d="M485.74,703.39c-3.2-36.5-3.05-36.72,31.74-44.34C525.22,690.86,520.23,697.83,485.74,703.39z"/>
	<path class="st8" d="M640.63,489.55c-15.27,6.37-30.54,12.74-45.81,19.11c-8.89-3.78-17.79-7.56-26.68-11.33
		c20.7-5.95,41.4-11.89,62.1-17.84C633.7,482.84,637.16,486.2,640.63,489.55z"/>
	<path class="st9" d="M481.43,490.82c-14.81,4.58-29.62,9.17-44.43,13.75c0-9.03,0-18.06,0-30.83
		C453.1,479.93,467.27,485.37,481.43,490.82z"/>
</g>
</svg>